<svg xmlns="http://www.w3.org/2000/svg" viewBox="0 0 400 100">
  <!-- Cloud 1 - Small -->
  <g id="cloud-small">
    <rect x="10" y="30" width="8" height="8" fill="#FFFFFF"/>
    <rect x="18" y="22" width="8" height="8" fill="#FFFFFF"/>
    <rect x="26" y="30" width="8" height="8" fill="#FFFFFF"/>
    <rect x="18" y="38" width="8" height="8" fill="#FFFFFF"/>
  </g>
  
  <!-- Cloud 2 - Medium -->
  <g id="cloud-medium">
    <rect x="60" y="25" width="8" height="8" fill="#FFFFFF"/>
    <rect x="68" y="17" width="8" height="8" fill="#FFFFFF"/>
    <rect x="76" y="17" width="8" height="8" fill="#FFFFFF"/>
    <rect x="84" y="25" width="8" height="8" fill="#FFFFFF"/>
    <rect x="68" y="33" width="8" height="8" fill="#FFFFFF"/>
    <rect x="76" y="33" width="8" height="8" fill="#FFFFFF"/>
  </g>
  
  <!-- Cloud 3 - Large -->
  <g id="cloud-large">
    <rect x="120" y="20" width="8" height="8" fill="#FFFFFF"/>
    <rect x="128" y="12" width="8" height="8" fill="#FFFFFF"/>
    <rect x="136" y="12" width="8" height="8" fill="#FFFFFF"/>
    <rect x="144" y="12" width="8" height="8" fill="#FFFFFF"/>
    <rect x="152" y="20" width="8" height="8" fill="#FFFFFF"/>
    <rect x="128" y="28" width="8" height="8" fill="#FFFFFF"/>
    <rect x="136" y="28" width="8" height="8" fill="#FFFFFF"/>
    <rect x="144" y="28" width="8" height="8" fill="#FFFFFF"/>
  </g>
</svg>
